<?xml version="1.0" encoding="utf-8"?>
<!-- Generator: Adobe Illustrator 25.1.0, SVG Export Plug-In . SVG Version: 6.00 Build 0)  -->
<svg version="1.1" id="Layer_1" xmlns="http://www.w3.org/2000/svg" xmlns:xlink="http://www.w3.org/1999/xlink" x="0px" y="0px"
	 viewBox="0 0 99 69" style="enable-background:new 0 0 99 69;" xml:space="preserve">
<style type="text/css">
	.st0{fill:#F0FCFF;}
	.st1{fill:#7E8C96;}
	.st2{fill:#008EC6;}
	.st3{opacity:0.3;}
	.st4{fill:#034EA1;}
	.st5{opacity:8.000000e-02;fill:#DB0032;enable-background:new    ;}
</style>
<path class="st0" d="M20,28L43,5c3.6-3.6,9.5-3.6,13.1,0l23,23c3.6,3.6,3.6,9.5,0,13.1L56,64c-3.6,3.6-9.5,3.6-13.1,0L20,41
	C16.4,37.4,16.4,31.6,20,28z"/>
<path class="st0" d="M74.4,10.9c-2,0-3.5,1.6-3.5,3.5s1.6,3.5,3.5,3.5s3.5-1.6,3.5-3.5S76.4,10.9,74.4,10.9L74.4,10.9z M74.9,15.3
	c-0.9,0-1.6-0.7-1.6-1.6s0.7-1.6,1.6-1.6s1.6,0.7,1.6,1.6l0,0C76.5,14.6,75.8,15.3,74.9,15.3z"/>
<path class="st0" d="M81.6,22.6c-0.9,0-1.7,0.8-1.7,1.7c0,0.9,0.8,1.7,1.7,1.7s1.7-0.8,1.7-1.7C83.3,23.4,82.5,22.6,81.6,22.6
	L81.6,22.6z M81.8,24.7c-0.4,0-0.8-0.3-0.8-0.8l0,0c0-0.4,0.3-0.8,0.8-0.8c0.4,0,0.8,0.3,0.8,0.8S82.2,24.7,81.8,24.7z"/>
<path class="st0" d="M76.4,0.8c-0.9,0-1.7,0.8-1.7,1.7s0.8,1.7,1.7,1.7s1.7-0.8,1.7-1.7S77.3,0.8,76.4,0.8L76.4,0.8z M76.6,3
	c-0.4,0-0.8-0.3-0.8-0.8c0-0.4,0.3-0.8,0.8-0.8c0.4,0,0.8,0.3,0.8,0.8S77,3,76.6,3L76.6,3z"/>
<path class="st1" d="M26.3,63.3c-1.7,0-3.1-1.4-3.1-3.1V8.8c0-0.8,0.3-1.6,0.9-2.2s1.4-0.9,2.2-0.9h44.2c1.7,0,3.1,1.4,3.1,3.1v51.4
	c0,1.7-1.4,3.1-3.1,3.1H26.3z M24.4,60.2c0,1,0.9,1.9,1.9,1.9h44.2c1,0,1.9-0.9,1.9-1.9V17.1h-48C24.4,17.1,24.4,60.2,24.4,60.2z
	 M26.3,6.9c-1,0-1.9,0.9-1.9,1.9v7.1h48V8.8c0-1-0.9-1.9-1.9-1.9H26.3z"/>
<g>
	<path class="st2" d="M29.2,9.1c-1.3,0-2.4,1.1-2.4,2.4s1.1,2.4,2.4,2.4s2.4-1.1,2.4-2.4C31.5,10.2,30.5,9.1,29.2,9.1z M29.2,12.6
		c-0.6,0-1.1-0.5-1.1-1.1s0.5-1.1,1.1-1.1s1.1,0.5,1.1,1.1S29.8,12.6,29.2,12.6z"/>
</g>
<path class="st2" d="M42.3,13.4c-0.3,0-0.6-0.3-0.6-0.6s0.3-0.6,0.6-0.6h3.3c0.3,0,0.6,0.3,0.6,0.6s-0.3,0.6-0.6,0.6H42.3z"/>
<path class="st2" d="M35.2,13.4c-0.3,0-0.6-0.3-0.6-0.6s0.3-0.6,0.6-0.6h3.3c0.3,0,0.6,0.3,0.6,0.6s-0.3,0.6-0.6,0.6H35.2z"/>
<path class="st2" d="M42.3,10.7c-0.3,0-0.6-0.3-0.6-0.6s0.3-0.6,0.6-0.6h3.3c0.3,0,0.6,0.3,0.6,0.6s-0.3,0.6-0.6,0.6H42.3z"/>
<path class="st2" d="M35.2,10.7c-0.3,0-0.6-0.3-0.6-0.6s0.3-0.6,0.6-0.6h3.3c0.3,0,0.6,0.3,0.6,0.6s-0.3,0.6-0.6,0.6H35.2z"/>
<g>
	<path class="st1" d="M47.8,55.8c-8.9,0-16.2-7.2-16.2-16s7.3-16,16.2-16c7.4,0,13.8,5,15.6,12h-1.2C60.4,29.4,54.6,25,47.8,25
		c-8.3,0-14.9,6.6-14.9,14.8s6.7,14.8,14.9,14.8c7.1,0,13.1-4.8,14.6-11.6h1.2C62,50.4,55.3,55.8,47.8,55.8z"/>
</g>
<g>
	<g class="st3">
		<path class="st4" d="M42.6,46.4c1.4,0,2-0.4,2.7-0.8c0.7-0.4,1.6-0.9,3.2-0.9s2.5,0.5,3.2,0.9c0.7,0.4,1.4,0.8,2.7,0.8
			c1.4,0,2-0.4,2.7-0.8c0.6-0.3,1.2-0.6,2.1-0.8c0.4-1,0.7-2,0.9-3.1c-1.2,0-1.8,0.4-2.5,0.8c-0.7,0.4-1.6,0.9-3.2,0.9
			c-1.6,0-2.5-0.5-3.2-0.9c-0.7-0.4-1.4-0.8-2.7-0.8c-1.3,0-2,0.4-2.7,0.8c-0.7,0.4-1.6,0.9-3.2,0.9s-2.5-0.5-3.2-0.9
			c-0.7-0.4-1.4-0.8-2.7-0.8c-0.5,0-0.9,0.1-1.3,0.1c0.2,1,0.5,2,0.9,2.9c0.1,0,0.3,0,0.4,0c1.6,0,2.5,0.5,3.2,0.9
			C40.5,46.1,41.2,46.4,42.6,46.4"/>
		<path class="st4" d="M57.8,46.5c-0.7,0.4-1.6,0.9-3.2,0.9s-2.5-0.5-3.2-0.9c-0.7-0.4-1.4-0.8-2.7-0.8c-1.4,0-2,0.4-2.7,0.8
			c-0.7,0.4-1.6,0.9-3.2,0.9s-2.5-0.5-3.2-0.9s-1.4-0.8-2.7-0.8c2.1,3.9,6.4,6.6,11.2,6.6c4.8,0,8.9-2.6,11-6.4
			C58.5,46.2,58.2,46.4,57.8,46.5"/>
	</g>
	<path class="st5" d="M36.5,40.7c1.6,0,2.5,0.5,3.2,0.9c0.7,0.4,1.4,0.8,2.8,0.8c1.4,0,2.1-0.4,2.8-0.8c0.8-0.4,1.6-0.9,3.2-0.9
		c1.6,0,2.5,0.5,3.2,0.9c0.7,0.4,1.4,0.8,2.8,0.8s2.1-0.4,2.8-0.8c0.7-0.4,1.6-0.9,3.1-0.9c0-0.3,0-0.6,0-0.9
		c0-6.9-5.6-12.6-12.6-12.6c-0.1,0-0.2,0-0.3,0h-0.1c-0.1,0-0.1,0-0.2,0c-0.1,0-0.1,0-0.2,0h-0.1c-0.1,0-0.2,0-0.2,0s0,0-0.1,0
		c-0.1,0-0.2,0-0.3,0l0,0c-1.1,0.1-2.1,0.4-3.1,0.8c2.5,1.8,2.7,4.7,2.7,4.7c-1.1,0.6-2.8-1.3-2.8-1.3c0.8,4.7-1.9,6.8-1.9,6.8
		c0-1.1-1.3-3.5-1.3-3.5c-0.2,1.5-3.1,4.5-3.1,4.5c0.9-3.1-0.6-4.4-0.7-4.5c-0.5,1.2-0.9,2.4-1,3.7l0,0c0,0.1,0,0.2,0,0.3
		c0,0,0,0,0,0.1s0,0.2,0,0.3c0,0,0,0,0,0.1s0,0.2,0,0.3v0.1c0,0.1,0,0.2,0,0.3l0,0c0,0.4,0,0.7,0,1C35.5,40.8,35.9,40.7,36.5,40.7"
		/>
</g>
</svg>
